<svg width="48" height="48" fill="none" xmlns="http://www.w3.org/2000/svg"><path d="M37.429 8H10.578A2.578 2.578 0 008 10.578v26.844A2.578 2.578 0 0010.578 40h26.844A2.578 2.578 0 0040 37.422V10.578A2.578 2.578 0 0037.422 8h.007zM26.335 18.905h4.872v1.134h-4.872v-1.134zm-2.659 8.962c-.21.35-.48.64-.796.884a3.057 3.057 0 01-1.269.56 7.756 7.756 0 01-1.586.155h-5.047V18.257h5.418c1.364.02 2.335.419 2.902 1.195.344.479.513 1.046.513 1.707s-.175 1.235-.52 1.646c-.195.237-.479.446-.857.642.574.209 1.006.54 1.296.992.29.452.439.998.439 1.64 0 .64-.169 1.261-.5 1.788h.007zm9.346-1.937H26.99c.034.83.324 1.417.864 1.748.33.209.729.31 1.195.31.492 0 .897-.128 1.2-.378a1.77 1.77 0 00.446-.567h2.214c-.061.493-.324.992-.803 1.498-.743.804-1.782 1.208-3.118 1.208-1.1 0-2.078-.337-2.915-1.018-.844-.682-1.262-1.789-1.262-3.32 0-1.438.378-2.538 1.14-3.3.763-.77 1.748-1.148 2.963-1.148.722 0 1.37.128 1.95.385a3.3 3.3 0 011.43 1.228c.338.493.56 1.066.662 1.714.06.378.08.931.074 1.647l-.007-.007z" fill="#fff"/><path d="M28.913 22.745c-.554 0-.986.155-1.296.472-.304.317-.5.742-.58 1.282h3.731c-.04-.573-.229-1.012-.58-1.309-.344-.297-.776-.445-1.289-.445h.014zM21.125 22.4c.304-.181.46-.512.46-.985 0-.52-.203-.863-.602-1.032-.344-.115-.789-.175-1.322-.175h-2.436v2.47h2.726c.486 0 .884-.095 1.188-.277h-.014zM21.092 24.722c-.264-.121-.641-.182-1.12-.189h-2.76v2.99h2.719c.486 0 .864-.068 1.134-.196.492-.243.735-.709.735-1.397 0-.58-.236-.985-.715-1.201l.007-.007z" fill="#fff"/></svg>